<svg width="12.397461" height="11.801025" viewBox="0 0 12.3975 11.801" fill="none" xmlns="http://www.w3.org/2000/svg" xmlns:xlink="http://www.w3.org/1999/xlink">
	<desc>
			Created with Pixso.
	</desc>
	<defs/>
	<path id="Arrow 1" d="M1.51 9.91L1.5 9.93C1.01 10.21 0.41 10.05 0.13 9.57C-0.15 9.08 0.01 8.48 0.5 8.2L0.53 8.21L1.51 9.91ZM10.17 3.77L3.41 1.96C2.86 1.82 2.55 1.28 2.7 0.74C2.84 0.2 3.38 -0.11 3.92 0.03L11.65 2.1C12.19 2.25 12.5 2.79 12.36 3.33L10.29 11.05C10.14 11.59 9.6 11.91 9.06 11.76C8.52 11.62 8.21 11.08 8.35 10.54L10.17 3.77Z" fill="#20E164" fill-opacity="1.000000" fill-rule="nonzero"/>
	<path id="Arrow 1" d="M8.8 3.41L3.41 1.96C2.86 1.82 2.55 1.28 2.7 0.74C2.84 0.2 3.38 -0.11 3.92 0.03L11.65 2.1C12.19 2.25 12.5 2.79 12.36 3.33L10.29 11.05C10.14 11.59 9.6 11.91 9.06 11.76C8.52 11.62 8.21 11.08 8.35 10.54L9.8 5.14L1.5 9.93C1.01 10.21 0.41 10.05 0.13 9.57C-0.15 9.08 0.01 8.48 0.5 8.2L8.8 3.41Z" fill="#20E164" fill-opacity="1.000000" fill-rule="evenodd"/>
</svg>
