<svg width="206.000000" height="205.166992" viewBox="0 0 206 205.167" fill="none" xmlns="http://www.w3.org/2000/svg" xmlns:xlink="http://www.w3.org/1999/xlink">
	<desc>
			Created with Pixso.
	</desc>
	<defs/>
	<path id="image 22 (Traced)" d="M95.54 0.12C66.72 2.73 41.89 15.46 23.89 36.87C-7.76 74.5 -7.99 129.74 23.34 167.69C33.38 179.86 46.73 190.03 60.93 196.33C69.2 200 79.06 202.84 88.58 204.3C95.62 205.37 109.48 205.46 116.23 204.48C139.2 201.14 158.56 191.85 174.42 176.57C191.27 160.33 201.38 140.77 205.1 117.19C206.3 109.62 206.29 95.77 205.09 88.05C201.79 66.76 192.69 47.8 178.61 32.86C161.84 15.08 141.8 4.64 117.33 0.95C112.73 0.25 99.59 -0.25 95.54 0.12ZM88.12 2.3C88 2.42 87.68 2.43 87.41 2.33C87.12 2.21 87.21 2.13 87.64 2.11C88.02 2.09 88.24 2.18 88.12 2.3ZM105.28 2.66C105.16 2.97 105.06 3.44 105.06 3.69C105.06 4.02 103.95 4.22 101.2 4.39L97.33 4.63L96.46 3.63L95.59 2.63L96.39 2.39C96.83 2.26 99.06 2.14 101.35 2.12C105 2.08 105.48 2.15 105.28 2.66ZM111.1 2.45C112.92 2.65 114.79 2.9 115.26 3.01C116.08 3.2 116.06 3.25 114.71 4.21C113.31 5.21 113.29 5.21 109.82 4.86C107.91 4.67 106.29 4.47 106.22 4.42C106.15 4.36 106.2 3.82 106.34 3.2C106.62 1.93 106.51 1.94 111.1 2.45ZM84.92 3.01C83.81 3.28 82.58 3.49 82.17 3.48C81.18 3.44 84.86 2.52 86.02 2.51C86.52 2.51 86.03 2.73 84.92 3.01ZM94.99 3.53C95.56 4.13 95.97 4.68 95.88 4.74C95.79 4.81 94.22 5.14 92.38 5.48L89.03 6.09L86.88 5.01C85.7 4.42 84.98 3.92 85.29 3.9C85.59 3.89 87.57 3.57 89.68 3.19C91.8 2.81 93.62 2.49 93.73 2.47C93.85 2.46 94.41 2.93 94.99 3.53ZM126.12 3.7C128.14 4.18 130.19 4.75 130.7 4.95C131.57 5.3 131.56 5.31 130.33 5.32C129.63 5.33 127.24 4.77 125.02 4.09C120.31 2.63 120.88 2.43 126.12 3.7ZM123.19 4.69C125.83 5.45 127 6.09 125.77 6.09C125.39 6.09 124.2 6.37 123.12 6.71C121.04 7.36 121.38 7.39 116.31 6.05C114.73 5.64 114.81 5.29 116.71 4.27C118.23 3.46 119.12 3.51 123.19 4.69ZM78.88 4.64C73.32 7.08 71.74 7.58 70.05 7.48L68.26 7.36L71 6.38C75.04 4.93 77.28 4.32 78.51 4.32C79.45 4.32 79.51 4.36 78.88 4.64ZM85.76 5.82L87.52 6.56L84.87 7.61L82.23 8.67L78.72 8.08C76.79 7.75 75.17 7.44 75.12 7.39C75.07 7.34 76.72 6.71 78.78 5.99C82.71 4.63 82.92 4.62 85.76 5.82ZM104.16 7.45C104.02 8.61 103.79 9.65 103.66 9.78C103.52 9.9 102.75 10.1 101.93 10.22L100.45 10.44L99.37 8.36C98.79 7.21 98.25 6.16 98.18 6.02C98.05 5.75 99.77 5.52 102.63 5.42L104.41 5.36L104.16 7.45ZM98.3 8.69L99.17 10.38L97.67 10.76C96.21 11.13 96.1 11.09 94.28 9.61C93.24 8.78 92 7.83 91.52 7.52C90.66 6.95 90.67 6.94 92.82 6.52C94.01 6.29 95.32 6.04 95.72 5.97C96.58 5.82 97.11 6.38 98.3 8.69ZM110.3 5.95L111.98 6.18L110.09 8.32C108.36 10.28 108.07 10.46 106.69 10.46C105.86 10.46 105.1 10.37 104.99 10.26C104.81 10.09 105.24 7.38 105.62 6.18C105.79 5.68 107.64 5.59 110.3 5.95ZM116.97 7.37L119.16 7.99L115.57 9.78C112.58 11.28 111.77 11.54 110.72 11.34C110.03 11.21 109.46 11.01 109.46 10.88C109.46 10.3 113.71 6.47 114.21 6.61C114.52 6.69 115.76 7.04 116.97 7.37ZM140.68 8.72C142.85 9.74 144.58 10.61 144.53 10.65C144.47 10.69 143.03 10.54 141.32 10.32C138.35 9.93 136.88 9.33 132.53 6.74C132.19 6.54 132.89 6.5 134.36 6.64C136.15 6.81 137.71 7.32 140.68 8.72ZM132.84 8.34L136.01 9.86L131.51 10.15L127.01 10.44L124.77 9.2L122.53 7.97L123.96 7.6C126.43 6.97 126.82 6.9 128.26 6.86C129.23 6.83 130.66 7.29 132.84 8.34ZM92.2 9.46L94.79 11.37L93.72 11.88C92.73 12.36 92.41 12.31 89.79 11.29C88.22 10.68 86.3 9.98 85.54 9.74C84.77 9.49 84.21 9.22 84.3 9.13C84.67 8.76 88.09 7.58 88.83 7.56C89.26 7.55 90.78 8.41 92.2 9.46ZM67.01 10.61C64.45 12.35 63.7 12.66 60.87 13.18C59.09 13.51 57.31 13.86 56.9 13.97C55.6 14.31 58.16 12.45 61.22 10.82C63.93 9.38 66.04 8.78 68.73 8.68C69.86 8.64 69.76 8.76 67.01 10.61ZM79.38 9.29L80.62 9.56L78.55 10.93L76.48 12.3L71.52 12.2L66.56 12.1L69.42 10.34L72.29 8.58L75.21 8.8C76.83 8.92 78.7 9.14 79.38 9.29ZM123.01 9.61C125.41 10.64 125.38 10.93 122.82 11.35C122.02 11.48 119.98 11.97 118.29 12.45C115.88 13.13 115.03 13.23 114.35 12.92C113.88 12.7 113.49 12.42 113.49 12.29C113.49 12.07 120.01 8.69 120.51 8.65C120.65 8.65 121.77 9.07 123.01 9.61ZM86.04 11.14C87.74 11.72 89.58 12.4 90.14 12.66C91.12 13.11 91.12 13.14 90.41 13.63C89.78 14.07 89.07 14.04 85.19 13.41C82.73 13 80.14 12.62 79.44 12.57L78.17 12.46L79.99 11.28C80.99 10.63 82.06 10.1 82.38 10.1C82.69 10.1 84.34 10.57 86.04 11.14ZM103.3 11.65C103.31 11.8 103.21 12.95 103.06 14.2L102.8 16.47L102.1 14.65C100.96 11.7 100.95 11.62 101.66 11.44C102.53 11.21 103.26 11.3 103.3 11.65ZM140.73 13.22C142.09 14.34 143.15 15.31 143.09 15.36C143.02 15.42 140.38 15.2 137.22 14.88L131.46 14.28L130.15 13.02C128.47 11.39 128.8 11.25 134.2 11.21L138.25 11.19L140.73 13.22ZM99.71 11.84C99.81 12 100.24 13.03 100.67 14.12L101.45 16.11L99.4 14.1C97.46 12.21 97.39 12.08 98.18 11.86C99.39 11.52 99.5 11.52 99.71 11.84ZM105.95 13.46C103.95 16.23 103.88 16.28 104.14 14.65C104.64 11.5 104.61 11.55 106.02 11.55L107.32 11.55L105.95 13.46ZM145.27 12.13C148.28 12.75 151.12 14.43 153.73 17.14L154.97 18.43L152.65 17.71C151.38 17.32 149.17 16.73 147.75 16.42C145.42 15.9 144.94 15.62 142.91 13.69C140.3 11.22 140.43 11.14 145.27 12.13ZM110.48 12.47C110.54 12.52 109.55 13.3 108.28 14.2C107.02 15.11 105.93 15.8 105.86 15.74C105.8 15.68 106.35 14.79 107.08 13.77C108.27 12.14 108.54 11.95 109.4 12.15C109.93 12.28 110.42 12.42 110.48 12.47ZM128.69 13.13L130.11 14.35L124.03 14.8C119.39 15.15 117.76 15.15 117.15 14.83C116.71 14.6 116.45 14.31 116.56 14.2C116.95 13.81 124.64 11.97 125.97 11.94C126.95 11.92 127.63 12.22 128.69 13.13ZM56.32 12.42C54.47 14.14 49.99 16.63 49.54 16.19C49.49 16.13 50.95 15.24 52.8 14.2C55.89 12.47 56.74 12.04 56.32 12.42ZM98.75 14.99C99.2 15.5 99.52 15.92 99.47 15.92C99.42 15.92 98.14 15.28 96.63 14.49C94.05 13.14 93.95 13.03 94.81 12.72C95.8 12.35 97.1 13.11 98.75 14.99ZM113.46 13.6C113.54 13.68 113.54 13.79 113.46 13.85C113.13 14.1 107.58 16.21 107.78 16.01C107.9 15.89 108.86 15.17 109.92 14.42C111.65 13.17 112.71 12.93 113.46 13.6ZM74.05 14.99C72.73 16.51 72.51 16.62 70.27 16.84C68.96 16.98 66.25 17.4 64.25 17.77C62.25 18.15 60.55 18.4 60.48 18.33C60.4 18.25 61.27 17.2 62.4 15.99C64.74 13.47 64.63 13.5 70.94 13.43L75.45 13.37L74.05 14.99ZM84.43 14.42C87.12 14.86 88.03 15.15 88.03 15.56C88.03 16.02 86.94 16.13 81.16 16.29C77.39 16.39 74.3 16.39 74.3 16.3C74.3 16.21 74.88 15.54 75.59 14.82C76.83 13.56 76.99 13.51 78.86 13.66C79.94 13.75 82.45 14.09 84.43 14.42ZM95.17 15.04C97.66 16.36 97.52 16.39 93.89 15.33C91.26 14.56 91.2 14.52 91.89 14.09C92.6 13.64 92.46 13.6 95.17 15.04ZM61.45 15.29C60.85 15.94 59.99 17.01 59.55 17.66C58.96 18.53 58.28 18.97 57.1 19.28C56.19 19.51 53.69 20.29 51.53 21.03L47.6 22.37L48.32 21.35C48.72 20.8 50 19.37 51.18 18.19C53.22 16.12 53.45 16 56.57 15.26C62.85 13.78 62.83 13.78 61.45 15.29ZM115.94 15.42C115.75 15.61 110.07 16.66 109.94 16.53C109.88 16.47 111.02 16 112.48 15.48C114.36 14.82 115.27 14.66 115.6 14.92C115.86 15.13 116.01 15.35 115.94 15.42ZM154.97 15.43C157.95 16.92 164.97 22.02 164.59 22.41C164.52 22.47 163.5 22.05 162.32 21.47C161.14 20.89 159.65 20.21 159 19.95C157.99 19.55 152.31 14.47 152.87 14.47C152.98 14.47 153.92 14.9 154.97 15.43ZM92.98 16.29L95.36 17.02L93.57 16.84C92.58 16.74 91.12 16.65 90.32 16.65C89.06 16.65 88.92 16.58 89.31 16.11C89.9 15.4 90.12 15.42 92.98 16.29ZM132.16 17.07C132.77 17.91 133.21 18.65 133.14 18.72C133.06 18.79 131.87 18.69 130.48 18.49C129.09 18.3 125.94 18.03 123.48 17.89C120.02 17.69 118.97 17.51 118.81 17.09C118.69 16.79 118.65 16.49 118.72 16.42C118.87 16.27 126.42 15.68 129.14 15.61C130.99 15.56 131.1 15.61 132.16 17.07ZM142.75 16.65C143.84 16.85 144.77 17.05 144.82 17.11C145.34 17.65 147.55 21.29 147.55 21.59C147.55 21.86 146.51 21.73 144.52 21.2C142.86 20.76 139.98 20.1 138.12 19.75C134.75 19.1 134.73 19.09 133.81 17.54C133.31 16.68 132.89 15.92 132.89 15.85C132.89 15.64 140.63 16.27 142.75 16.65ZM117.65 17.2C117.83 17.66 117.34 17.74 114.48 17.72C110.84 17.68 110.73 17.57 113.85 17.06C116.85 16.58 117.42 16.6 117.65 17.2ZM47.7 20.44C45.6 23.1 44.96 23.65 42.85 24.63C41.52 25.25 39.54 26.26 38.45 26.88L36.48 28.02L37.31 26.84C39.47 23.84 43.14 20.71 46.49 19.05C48.33 18.13 49.9 17.38 49.98 17.38C50.06 17.38 49.03 18.76 47.7 20.44ZM86.68 18.02C86.59 18.49 86.01 18.74 84.37 18.98C83.16 19.15 79.95 19.66 77.23 20.12C74.51 20.57 72.24 20.9 72.18 20.84C72.12 20.79 72.34 20.08 72.67 19.27C73.39 17.48 73.26 17.51 81.01 17.43C86.35 17.38 86.79 17.43 86.68 18.02ZM152.89 19.03L156.95 20.28L158.42 22.38C159.79 24.33 161.1 26.58 161.1 26.99C161.1 27.08 159.74 26.57 158.07 25.86C156.41 25.14 153.75 24.1 152.15 23.54C149.27 22.54 149.24 22.51 148.19 20.42C147.61 19.26 146.94 18.08 146.7 17.8C146.13 17.11 147.54 17.39 152.89 19.03ZM71.43 19.53L70.88 21.31L67 22.31C64.87 22.85 61.85 23.75 60.29 24.3C58.2 25.03 57.45 25.16 57.45 24.81C57.45 23.76 59.01 20.27 59.63 19.94C60.17 19.65 63.01 19.11 69.9 17.99C72.09 17.64 72.03 17.57 71.43 19.53ZM93.53 18.09C94.79 18.35 94.58 18.39 92 18.43C90.35 18.45 88.75 18.57 88.43 18.69C88.05 18.84 87.85 18.71 87.85 18.33C87.85 17.86 88.26 17.75 89.96 17.77C91.11 17.78 92.72 17.92 93.53 18.09ZM118.44 19.23C118.87 19.91 118.45 19.93 115.11 19.41L111.84 18.91L115.02 18.87C116.92 18.85 118.3 18.99 118.44 19.23ZM130.33 19.62C132.04 19.84 133.57 20.2 133.71 20.43C133.86 20.66 133.99 21.44 133.99 22.16L133.99 23.49L130.24 22.49C128.18 21.94 124.96 21.19 123.1 20.82C120.23 20.24 119.71 20.03 119.71 19.44C119.71 18.77 119.92 18.75 123.47 18.98C125.53 19.11 128.62 19.4 130.33 19.62ZM90.96 20.31C89.15 20.7 87.62 21.01 87.58 21.02C87.52 21.02 87.48 20.79 87.48 20.5C87.48 19.86 88.4 19.67 91.69 19.64L94.26 19.62L90.96 20.31ZM86.38 20.64C86.38 21.18 85.99 21.46 84.83 21.76C83.97 21.98 80.88 22.9 77.96 23.81C75.04 24.73 72.58 25.5 72.48 25.52C72.15 25.63 71.73 22.7 72.04 22.39C72.43 22.01 81.99 20.33 85.74 19.99C86.16 19.95 86.38 20.18 86.38 20.64ZM57.01 22.57C56.59 23.82 56.14 25.07 56.01 25.35C55.89 25.62 54.22 26.54 52.31 27.37C50.41 28.21 47.75 29.42 46.41 30.06C45.08 30.7 43.89 31.22 43.79 31.22C43.47 31.22 44.26 28.64 45.27 26.38C46.03 24.69 46.48 24.15 47.53 23.69C48.9 23.1 57.08 20.32 57.52 20.31C57.66 20.3 57.43 21.32 57.01 22.57ZM115.93 20.7C117.48 20.96 118.25 21.27 118.25 21.61C118.25 22.29 117.79 22.25 114.58 21.23C111.62 20.28 112.21 20.05 115.93 20.7ZM142.85 22C146.59 22.91 148.31 23.48 148.46 23.89C148.59 24.21 148.78 25.51 148.9 26.78L149.12 29.09L147.69 28.49C144.38 27.09 142.41 26.33 139.13 25.21C135.45 23.95 135.22 23.73 135.13 21.27C135.09 20.05 134.6 20.01 142.85 22ZM94.62 21.03C91.21 22.53 88.84 23.25 88.48 22.89C87.87 22.29 88.33 22.05 91.42 21.36C94.58 20.65 95.76 20.53 94.62 21.03ZM94.05 23.35C91.18 25.18 90.92 25.27 90.3 24.73C89.68 24.19 89.85 24.07 93.05 22.8C94.92 22.06 96.61 21.44 96.8 21.42C96.99 21.4 95.75 22.27 94.05 23.35ZM113.72 22.14C117.61 23.3 117.36 23.15 116.71 23.8C116.2 24.3 115.86 24.21 113.26 22.89C109.99 21.23 110.1 21.06 113.72 22.14ZM124.57 22.28C128.83 23.21 133.54 24.46 133.82 24.73C134.06 24.98 133.28 27.53 132.88 27.77C132.68 27.89 130.15 27.01 127.25 25.81C124.35 24.61 121.3 23.42 120.48 23.18C119.65 22.93 118.98 22.69 118.98 22.63C118.98 22.1 119.53 21.39 119.94 21.39C120.22 21.39 122.31 21.79 124.57 22.28ZM162.67 22.88C167.37 25.26 168.22 25.92 169.96 28.55C171.8 31.33 172.94 33.41 172.73 33.61C172.66 33.68 171.86 33.25 170.97 32.65C170.07 32.04 167.84 30.74 166.01 29.75C162.83 28.03 162.64 27.85 161.73 25.85C161.21 24.7 160.43 23.22 159.99 22.57C159.55 21.92 159.31 21.39 159.46 21.39C159.61 21.39 161.05 22.06 162.67 22.88ZM96.41 24.34C94.02 26.72 93.74 26.89 92.99 26.49C92.41 26.19 92.28 25.94 92.55 25.67C92.96 25.27 98.52 21.81 98.83 21.77C98.93 21.76 97.84 22.92 96.41 24.34ZM105.17 28.4C105.09 28.55 104.44 28.67 103.73 28.67C102.44 28.67 102.44 28.66 102.64 27.31C102.75 26.56 102.95 24.96 103.09 23.76L103.34 21.58L104.33 24.85C104.87 26.65 105.25 28.25 105.17 28.4ZM109.93 24.67C112.35 26.59 112.39 26.64 111.57 27.09C110.4 27.74 110.39 27.73 109.36 26.21C108.85 25.46 107.89 24.11 107.22 23.21C106.56 22.31 106.33 21.82 106.73 22.14C107.12 22.45 108.56 23.59 109.93 24.67ZM114.69 24.89C115.29 25.23 115.27 25.29 114.45 25.73C113.62 26.17 113.4 26.08 111.23 24.3C109.95 23.26 108.74 22.24 108.54 22.05C108.21 21.73 113.1 23.99 114.69 24.89ZM99.05 25.03C97.6 27.87 97.52 27.95 96.46 27.72C95.85 27.6 95.28 27.42 95.18 27.33C95 27.17 99.97 22.15 100.34 22.13C100.46 22.12 99.88 23.43 99.05 25.03ZM101.97 23.48C101.87 24.23 101.69 25.63 101.57 26.58C101.36 28.26 101.32 28.31 100.1 28.31C99.4 28.31 98.84 28.22 98.84 28.12C98.84 27.76 101.77 22.12 101.96 22.12C102.06 22.12 102.06 22.73 101.97 23.48ZM107.08 24.93C108.89 27.4 109.06 27.77 108.47 28C106.89 28.62 106.58 28.37 105.8 25.85C105.38 24.5 104.95 23.1 104.84 22.75C104.49 21.59 104.99 22.08 107.08 24.93ZM70.96 25.21C70.99 26.24 70.83 26.37 68.34 27.36C66.89 27.94 63.93 29.29 61.77 30.35C59.2 31.61 57.76 32.15 57.59 31.89C57.46 31.67 57.27 30.38 57.17 29.03L56.99 26.58L60.61 25.38C62.6 24.72 65.63 23.81 67.34 23.37L70.45 22.56L70.69 23.34C70.82 23.77 70.94 24.61 70.96 25.21ZM87.12 22.63C87.12 22.72 87.21 23.01 87.31 23.3C87.45 23.66 86.61 24.23 84.48 25.22C82.81 25.99 79.97 27.41 78.18 28.38C76.39 29.34 74.81 30.13 74.68 30.13C74.27 30.13 72.77 27.24 73 26.88C73.22 26.53 79.23 24.48 83.64 23.25C86.26 22.51 87.12 22.36 87.12 22.63ZM123.19 25.37C125.2 26.13 128.09 27.31 129.59 28L132.33 29.25L130.83 30.86L129.32 32.46L125.71 30.08C123.72 28.77 121.68 27.48 121.18 27.22C120.67 26.95 119.64 26.35 118.88 25.87C117.67 25.12 117.55 24.92 117.9 24.26C118.17 23.77 118.51 23.6 118.92 23.76C119.25 23.89 121.18 24.62 123.19 25.37ZM153.51 25.23C155.37 25.94 157.98 27.02 159.33 27.64C161.68 28.71 161.79 28.82 162.16 30.44C162.49 31.91 162.7 34.52 162.59 35.83C162.58 36.05 160.78 35.23 158.6 34C156.43 32.77 153.63 31.29 152.38 30.7L150.11 29.63L150.11 27.92C150.11 26.98 150 25.7 149.88 25.08C149.75 24.45 149.76 23.94 149.89 23.94C150.03 23.94 151.65 24.52 153.51 25.23ZM89.1 25.36C89.71 26.03 89.63 26.13 86.87 28.14C85.29 29.29 82.89 31.13 81.53 32.23L79.06 34.22L77.39 32.87C76.48 32.12 75.79 31.32 75.87 31.1C75.99 30.74 87.64 24.7 88.25 24.67C88.37 24.67 88.75 24.98 89.1 25.36ZM35.43 27.58C34.4 28.98 33.45 30.13 33.31 30.13C33.17 30.13 32.03 30.96 30.77 31.97C29.51 32.98 28.65 33.49 28.86 33.1C29.19 32.48 36.87 25.03 37.18 25.03C37.24 25.03 36.46 26.18 35.43 27.58ZM43.93 26.6C43.56 27.47 43.04 29.11 42.79 30.25C42.53 31.38 42.2 32.32 42.04 32.32C41.89 32.32 39.45 33.86 36.61 35.74C30.96 39.5 31.16 39.5 32.46 35.59C33.35 32.9 34.66 30.6 35.74 29.84C37.07 28.91 44 25.03 44.34 25.03C44.49 25.03 44.3 25.74 43.93 26.6ZM140.31 26.83C142.98 27.82 145.97 28.98 146.94 29.41L148.73 30.2L148.49 31.66C148.36 32.46 147.94 33.74 147.54 34.5L146.83 35.9L143.8 34.08C142.13 33.07 139.29 31.51 137.47 30.6C135.66 29.7 134.12 28.9 134.05 28.84C133.89 28.69 135.1 25.03 135.3 25.03C135.38 25.03 137.64 25.84 140.31 26.83ZM119.65 27.63C124.15 30.33 127.7 32.64 127.95 33.04C128.07 33.23 127.25 33.98 126.14 34.72L124.12 36.05L119.39 31.54C114.68 27.06 114.66 27.03 115.44 26.4C115.88 26.06 116.3 25.77 116.38 25.77C116.46 25.76 117.93 26.6 119.65 27.63ZM92.04 27.27C93.22 27.81 93.21 27.95 91.89 29.21C91.29 29.78 89.52 31.84 87.96 33.79L85.13 37.34L83.13 36.46C80.18 35.16 79.92 34.87 80.95 34.05C83.97 31.66 90.54 26.85 90.8 26.85C90.97 26.85 91.53 27.04 92.04 27.27ZM56.08 29.49C56.19 30.74 56.38 32.02 56.5 32.32C56.67 32.72 56.1 33.21 54.44 34.11C53.17 34.8 50.42 36.48 48.32 37.84C44.59 40.27 43.91 40.61 43.89 40.06C43.89 39.91 43.72 38.64 43.52 37.24C42.91 33.05 42.93 33.01 48.05 30.56C54 27.71 55 27.27 55.48 27.24C55.72 27.22 55.97 28.16 56.08 29.49ZM72.6 29.12C73.22 30.24 73.49 31.06 73.26 31.14C72.54 31.38 66.46 35.26 63.88 37.12L61.34 38.96L60.64 38.1C59.54 36.75 58.13 33.78 58.4 33.36C58.53 33.15 59.89 32.4 61.43 31.69C66 29.57 71.17 27.26 71.37 27.24C71.47 27.23 72.02 28.08 72.6 29.12ZM118.46 32.1C120.78 34.27 122.62 36.21 122.55 36.43C122.38 36.92 117.9 38.59 117.33 38.37C117.08 38.28 116.35 37.25 115.69 36.08C115.03 34.91 113.77 32.84 112.89 31.48C112.01 30.13 111.29 28.87 111.29 28.69C111.29 28.23 113.22 27.63 113.77 27.92C114.03 28.06 116.14 29.94 118.46 32.1ZM176.33 32.48C178.92 35.04 182.7 40.42 182.7 41.54C182.7 41.72 181.76 41 180.6 39.94C179.44 38.89 177.64 37.39 176.6 36.61C175.33 35.66 174.51 34.69 174.1 33.67C173.76 32.84 172.92 31.2 172.23 30.02L170.97 27.89L172.17 28.71C172.83 29.17 174.7 30.86 176.33 32.48ZM95.95 28.78L96.92 29.22L95.33 32.68C94.45 34.58 93.41 36.91 93.02 37.85L92.3 39.57L89.64 38.84C88.18 38.43 86.84 38.02 86.67 37.91C86.29 37.68 87.54 35.98 91.25 31.63C92.81 29.8 94.29 28.32 94.54 28.32C94.79 28.33 95.42 28.54 95.95 28.78ZM111.45 31.31C114.61 36.33 116.01 38.86 115.71 39.04C115.19 39.36 109.85 40.11 109.64 39.9C109.48 39.75 106.89 29.97 106.89 29.55C106.89 29.43 108.31 29.15 109.27 29.09C109.8 29.05 110.41 29.68 111.45 31.31ZM100.88 29.68C101.16 29.87 101.14 31.26 100.81 34.5C100.55 37 100.33 39.37 100.32 39.75C100.3 40.39 100.08 40.42 97.12 40.19C95.37 40.06 93.86 39.87 93.76 39.77C93.55 39.57 94.63 36.85 96.67 32.41C98 29.52 98.1 29.4 99.27 29.41C99.94 29.41 100.66 29.53 100.88 29.68ZM171.64 34.45C173.56 35.75 173.87 36.13 174.27 37.67C174.51 38.63 174.81 40.69 174.92 42.24C175.12 45.11 174.87 45.66 173.88 44.48C173.26 43.74 170.1 41.32 166.61 38.93L163.88 37.06L163.8 34.7C163.76 33.4 163.61 31.67 163.48 30.87L163.23 29.4L166.34 31.19C168.06 32.17 170.44 33.64 171.64 34.45ZM105.8 29.86C105.8 29.91 106.38 32.23 107.08 35.01C107.79 37.8 108.32 40.12 108.26 40.18C108.2 40.24 106.61 40.41 104.73 40.55L101.32 40.8L101.53 39.38C101.64 38.6 101.83 36.57 101.95 34.87C102.31 29.73 102.3 29.77 104.18 29.77C105.07 29.77 105.8 29.81 105.8 29.86ZM138.11 32.18C143.76 35.25 146.08 36.67 146.08 37.06C146.08 37.41 142.11 42.15 141.82 42.15C141.72 42.15 140.29 41.03 138.64 39.67C136.99 38.3 134.57 36.39 133.26 35.42C131.95 34.45 130.73 33.52 130.55 33.36C130.22 33.08 132.77 29.87 133.37 29.8C133.53 29.78 135.66 30.85 138.11 32.18ZM152.77 32.17C154.23 32.89 157.03 34.4 158.99 35.52L162.57 37.56L162.33 38.85C162.03 40.5 160.87 43.64 160.25 44.48C159.82 45.07 159.46 44.88 155.8 42.15C153.61 40.51 150.93 38.58 149.85 37.86C148.39 36.9 147.95 36.41 148.14 35.99C148.28 35.67 148.74 34.39 149.16 33.14C149.58 31.89 149.97 30.87 150.03 30.87C150.08 30.86 151.32 31.45 152.77 32.17ZM31.44 35.24C30.85 36.94 30.36 38.74 30.36 39.24C30.35 39.9 29.78 40.61 28.24 41.86C27.09 42.8 25.03 44.61 23.67 45.88C22.31 47.15 21.2 48.08 21.2 47.94C21.2 47.8 21.54 46.57 21.97 45.19C23.13 41.45 24.63 38.77 26.58 36.95C28.5 35.16 32.32 31.99 32.44 32.1C32.48 32.13 32.03 33.55 31.44 35.24ZM76.2 33.32C77.15 34.07 77.89 34.79 77.85 34.92C77.81 35.05 75.51 37.32 72.73 39.97L67.69 44.79L65.07 42.65C63.63 41.47 62.39 40.32 62.31 40.09C62.12 39.52 72.98 32.05 74.12 31.98C74.32 31.96 75.26 32.57 76.2 33.32ZM42.35 36.96C42.57 38.71 42.85 40.41 42.98 40.73C43.14 41.14 42.6 41.76 41.08 42.89C39.91 43.75 37.43 45.76 35.57 47.35C33.34 49.24 32.12 50.06 32.01 49.74C31.47 48.23 31.1 45.66 31.1 43.43C31.11 41.08 31.19 40.82 32.1 40.15C33.92 38.8 41.52 33.78 41.74 33.78C41.86 33.77 42.13 35.21 42.35 36.96ZM137.93 40.49C139.39 41.69 140.59 42.79 140.59 42.93C140.59 43.5 133.79 47.62 133.53 47.22C133.06 46.51 128.31 40.79 126.78 39.09L124.84 36.93L127.13 35.4L129.42 33.88L132.35 36.09C133.96 37.3 136.47 39.28 137.93 40.49ZM57.85 35.68C58.28 36.54 59.05 37.79 59.56 38.46C60.36 39.51 60.41 39.74 59.93 40C58.99 40.53 53.63 44.91 51.24 47.11L48.98 49.2L48.1 48.13C47.18 47.01 44.63 42.45 44.63 41.91C44.63 41.4 55.97 34.17 56.8 34.14C56.95 34.14 57.42 34.83 57.85 35.68ZM84 38.45C84 38.58 82.38 41.09 80.39 44.03L76.78 49.36L75.45 48.81C73.23 47.89 69.24 45.83 69.03 45.5C68.84 45.19 71.63 42.37 76.41 38.06L79.08 35.66L81.54 36.93C82.9 37.64 84 38.32 84 38.45ZM182.96 43.66C184.4 45.16 185.25 48.39 185.26 52.35L185.27 55.08L180.74 50.65L176.22 46.21L175.99 42.63C175.86 40.66 175.64 38.57 175.51 37.98C175.28 36.98 175.5 37.1 178.53 39.67C180.32 41.19 182.31 42.99 182.96 43.66ZM128.41 42.7C133.04 48.06 132.95 47.82 130.81 48.75C129.31 49.4 124.18 51.26 123.88 51.26C123.6 51.26 117.92 39.77 118.16 39.68C118.31 39.62 119.58 39.11 120.99 38.54C124.05 37.29 123.47 36.96 128.41 42.7ZM156.25 43.87C158.11 45.31 159.18 46.37 159.03 46.64C158.37 47.79 154.62 52.13 153.85 52.63C152.99 53.19 152.9 53.12 147.81 48.06L142.64 42.92L144.3 41.16C145.21 40.19 146.25 38.96 146.6 38.41L147.25 37.43L150.24 39.48C151.88 40.6 154.58 42.58 156.25 43.87ZM166.49 40.24C171.44 43.63 174.62 46.31 174.64 47.09C174.65 48.16 173.65 51.44 172.55 53.9L171.62 55.99L167.91 52.44C165.87 50.49 163.44 48.26 162.51 47.48L160.81 46.07L161.83 43.84C162.38 42.61 162.96 41.03 163.11 40.33C163.38 39.04 163.59 38.51 163.83 38.51C163.91 38.51 165.1 39.29 166.49 40.24ZM89.13 39.81C90.54 40.18 91.73 40.5 91.78 40.52C91.83 40.54 90.9 43.17 89.73 46.36C88.25 50.39 87.41 52.2 86.98 52.29C86.3 52.42 78.4 50.21 78.16 49.82C78 49.56 80.61 45.48 83.63 41.27C84.83 39.59 85.58 38.87 85.98 38.98C86.3 39.07 87.72 39.45 89.13 39.81ZM119.7 45.78C122.55 51.41 122.63 51.61 121.82 51.79C118.6 52.54 115.96 53.05 114.32 53.26C112.53 53.49 112.4 53.46 112.22 52.66C111.85 51.08 109.82 41.4 109.82 41.23C109.82 41.13 110.28 41.05 110.83 41.04C111.38 41.03 112.83 40.8 114.03 40.53C115.24 40.26 116.35 40.02 116.48 40C116.62 39.98 118.07 42.58 119.7 45.78ZM187.28 45.46C188.59 47.38 189.66 49.07 189.66 49.21C189.66 49.36 188.84 48.49 187.84 47.3C186.84 46.1 185.84 45.01 185.62 44.87C185.4 44.74 185.08 44.28 184.91 43.85C184.74 43.41 184.33 42.41 184 41.6L183.4 40.15L184.15 41.06C184.56 41.56 185.97 43.54 187.28 45.46ZM62.91 42.25C63.83 43.1 65.13 44.22 65.79 44.72L66.99 45.64L64.61 48.27C63.3 49.72 61.14 52.21 59.81 53.81L57.39 56.72L55.73 55.54C54.81 54.89 53.06 53.41 51.82 52.26L49.58 50.16L51.59 48.31C53.94 46.16 60.68 40.69 61 40.69C61.12 40.69 61.98 41.39 62.91 42.25ZM97.09 41.31C98.67 41.43 100.02 41.63 100.08 41.75C100.28 42.12 99.29 53.47 99.04 53.73C98.65 54.11 90 53.27 89.07 52.77C88.76 52.6 89.3 50.76 90.85 46.59C92.64 41.82 93.18 40.69 93.65 40.87C93.96 40.99 95.52 41.19 97.09 41.31ZM108.72 41.52C108.72 41.58 109.29 44.32 109.98 47.62C110.68 50.91 111.2 53.65 111.15 53.7C110.87 53.98 100.75 54.23 100.59 53.95C100.45 53.72 101.17 42.75 101.38 41.89C101.39 41.85 102.51 41.76 103.87 41.69C105.23 41.62 106.88 41.53 107.53 41.49C108.19 41.45 108.72 41.47 108.72 41.52ZM21.23 43.81C20.85 44.8 20.35 46.58 20.1 47.76C19.74 49.51 19.28 50.35 17.65 52.26C16.55 53.55 15.07 55.41 14.36 56.39C13.65 57.37 13.02 58.18 12.96 58.18C12.82 58.18 13.57 55.75 14.41 53.45C15.32 50.92 17.38 47.4 19.65 44.47C20.78 43 21.75 41.85 21.81 41.91C21.87 41.97 21.6 42.82 21.23 43.81ZM30.71 49.4L31.12 50.93L29.08 53.19C27.96 54.43 25.93 56.7 24.57 58.24C23.22 59.78 22.01 61.05 21.88 61.07C21.45 61.12 20.75 56.52 20.74 53.51L20.72 50.47L23.07 48.09C24.35 46.79 26.4 44.89 27.61 43.87L29.8 42.03L30.05 44.95C30.18 46.56 30.48 48.56 30.71 49.4ZM44.49 44.43C45.02 45.48 46.02 47.13 46.72 48.11L47.98 49.87L45.29 52.66C43.81 54.19 41.52 56.64 40.2 58.1L37.8 60.75L36.26 58.57C35.42 57.37 34.21 55.29 33.57 53.94L32.42 51.49L34.04 50.06C35.8 48.51 43.25 42.51 43.42 42.51C43.48 42.51 43.96 43.37 44.49 44.43ZM148.37 50.1C150.33 52.12 151.94 53.91 151.94 54.1C151.94 54.67 143.77 60 142.9 60C142.74 60 142.11 59.22 141.5 58.27C140.9 57.32 139.13 54.76 137.57 52.59C136 50.42 134.73 48.53 134.74 48.4C134.74 48.27 135.99 47.43 137.5 46.53C139.02 45.63 140.52 44.61 140.84 44.26C141.39 43.66 141.52 43.7 143.11 45.03C144.04 45.81 146.4 48.09 148.37 50.1ZM71.69 48.29C73.64 49.25 75.46 50.12 75.73 50.21C76.1 50.34 75.85 51 74.77 52.73C73.96 54.02 72.36 56.76 71.21 58.82C70.07 60.87 68.94 62.55 68.71 62.55C68.06 62.55 59.42 58.24 58.96 57.68C58.64 57.29 58.95 56.68 60.41 54.86C62.58 52.15 67.67 46.52 67.96 46.52C68.06 46.52 69.74 47.32 71.69 48.29ZM166.31 52.49C168.68 54.66 170.62 56.69 170.62 57C170.62 58.1 164.32 65.46 163.38 65.46C163.2 65.46 161.99 64.11 160.71 62.46C159.42 60.81 157.35 58.29 156.1 56.86L153.83 54.27L155.6 52.53C156.58 51.57 158.01 49.92 158.78 48.86L160.18 46.93L161.1 47.75C161.6 48.19 163.95 50.33 166.31 52.49ZM186.51 47.38C186.73 47.65 188.09 49.41 189.53 51.29C192.65 55.36 193.29 57.16 193.58 62.55L193.78 66.37L191.31 62.91C189.94 61.01 188.29 58.83 187.64 58.07C186.47 56.71 186.45 56.62 186.43 52.97C186.41 50.93 186.24 48.72 186.04 48.07C185.66 46.82 185.83 46.56 186.51 47.38ZM180.69 52.05C181.91 53.32 183.45 54.95 184.12 55.68L185.34 57.01L184.6 59.89C184.2 61.48 183.35 63.91 182.71 65.3L181.56 67.83L180.39 66.38C179.75 65.59 177.99 63.48 176.48 61.7C174.97 59.93 173.44 58.11 173.08 57.67C172.44 56.9 172.46 56.8 173.52 54.46C174.13 53.13 174.9 51.05 175.24 49.84L175.86 47.64L177.17 48.69C177.9 49.27 179.48 50.78 180.69 52.05ZM134.6 50.44C135.6 51.69 140.86 59.21 141.46 60.27C141.64 60.57 141.03 61.03 139.6 61.66C136.08 63.22 129.84 65.26 129.71 64.89C129.65 64.71 128.51 62.09 127.18 59.09C125.86 56.08 124.74 53.33 124.71 52.97C124.67 52.46 125.49 52 128.47 50.88C130.57 50.09 132.36 49.36 132.47 49.26C132.92 48.8 133.59 49.17 134.6 50.44ZM55.25 56.58C56.09 57.13 56.61 57.71 56.47 57.95C56.33 58.17 55.54 59.26 54.7 60.36C53.86 61.47 52.05 64.01 50.67 66.01C49.3 68.01 48.02 69.6 47.82 69.54C46.5 69.15 38.78 62.33 38.78 61.56C38.78 61.33 41.02 58.83 43.76 56.01L48.75 50.89L51.28 53.26C52.66 54.56 54.45 56.05 55.25 56.58ZM79.46 51.57C80.55 51.94 82.72 52.55 84.29 52.91C86.31 53.39 87.09 53.72 86.96 54.06C86.86 54.32 85.92 57.3 84.88 60.68L82.99 66.83L80.57 66.29C79.23 65.99 76.36 65.18 74.18 64.49C70.88 63.44 70.25 63.12 70.45 62.61C70.87 61.51 77.04 50.9 77.26 50.89C77.38 50.89 78.37 51.2 79.46 51.57ZM19.62 54.63C19.67 56.08 19.96 58.45 20.29 59.89L20.87 62.5L18.78 65.31C17.63 66.86 15.99 69.26 15.13 70.64C14.27 72.02 13.49 73.02 13.39 72.85C12.45 71.35 12.01 62.15 12.8 60.68C13.05 60.2 14.43 58.29 15.85 56.41C17.28 54.54 18.61 52.78 18.81 52.5C19.44 51.62 19.55 51.91 19.62 54.63ZM35.33 59.19C36.43 60.75 36.91 61.76 36.71 62.04C36.54 62.29 35.15 64.1 33.63 66.07C32.1 68.04 30.31 70.46 29.63 71.44L28.4 73.23L27.53 72.17C26.23 70.59 23.9 66.64 23 64.46L22.2 62.56L23.99 60.46C24.97 59.31 27.08 57 28.68 55.34L31.59 52.31L32.61 54.54C33.17 55.76 34.39 57.86 35.33 59.19ZM125.93 58.92C127.52 62.61 128.48 65.27 128.28 65.46C127.94 65.8 120.2 67.41 116.87 67.84C115.82 67.97 114.95 67.94 114.94 67.77C114.94 67.61 114.45 64.76 113.85 61.46C113.25 58.15 112.75 55.25 112.75 55.02C112.75 54.77 113.58 54.48 114.68 54.34C115.73 54.21 117.92 53.81 119.53 53.45C121.14 53.09 122.64 52.78 122.86 52.76C123.08 52.73 124.46 55.51 125.93 58.92ZM93.16 54.54C95.17 54.77 97.36 55.03 98.02 55.13L99.22 55.3L98.99 58.1C98.87 59.65 98.66 62.63 98.53 64.74L98.29 68.56L95.72 68.45C92.41 68.3 84.82 67.3 84.47 66.97C84.2 66.71 85.06 63.58 87.17 57.16C88.06 54.46 88.41 53.82 88.89 53.95C89.22 54.05 91.15 54.31 93.16 54.54ZM112.71 61.49C113.37 65.12 113.83 68.16 113.74 68.25C113.65 68.34 110.4 68.51 106.51 68.64L99.45 68.86L99.7 64.34C99.84 61.85 100.05 58.8 100.18 57.55L100.4 55.29L104.1 55.17C106.14 55.11 108.64 55.02 109.66 54.98L111.52 54.9L112.71 61.49ZM155.66 58.09C159.13 62.16 162.2 66.1 162.19 66.46C162.16 67.33 151.36 74.15 150.85 73.62C150.68 73.44 149.32 71.16 147.81 68.56C146.31 65.96 144.73 63.24 144.3 62.52L143.51 61.21L146.53 59.37C148.2 58.35 150.3 56.94 151.21 56.23C152.11 55.52 152.88 54.93 152.9 54.92C152.92 54.91 154.17 56.33 155.66 58.09ZM11.53 59.29C11.26 60.38 10.27 62.59 9.32 64.19C8.37 65.79 7.71 66.69 7.85 66.19C8.21 64.93 11.75 57.04 11.89 57.18C11.96 57.25 11.79 58.19 11.53 59.29ZM174.09 60.49C175.22 61.76 177.19 64.17 178.48 65.84L180.81 68.87L179.4 70.94C177.98 73.01 172.59 78.94 172.12 78.94C171.98 78.94 171.26 77.92 170.53 76.66C169.79 75.41 168.02 72.68 166.6 70.6L164.01 66.81L166.51 64.22C167.88 62.8 169.56 60.86 170.24 59.91C170.92 58.96 171.6 58.18 171.75 58.18C171.91 58.18 172.96 59.22 174.09 60.49ZM189.11 61.85C190.62 63.86 192.26 66.21 192.76 67.05L193.67 68.58L192.93 71.67C192.52 73.36 191.57 76.06 190.82 77.65L189.45 80.55L188.07 78.07C187.32 76.7 185.72 74.12 184.52 72.33C183.32 70.54 182.34 68.99 182.34 68.88C182.34 68.76 182.92 67.46 183.62 65.98C184.33 64.49 185.19 62.13 185.52 60.73C185.86 59.33 186.19 58.18 186.25 58.18C186.32 58.18 187.6 59.83 189.11 61.85ZM59.75 59.52C60.6 60.05 62.86 61.22 64.78 62.11C66.69 63 68.3 63.76 68.36 63.82C68.42 63.87 67.34 66.19 65.96 68.97C64.58 71.75 63.18 74.72 62.84 75.56L62.23 77.1L59.2 75.81C54.71 73.91 48.97 70.6 49.26 70.08C50.92 67.21 57.36 58.54 57.85 58.54C58.04 58.54 58.9 58.98 59.75 59.52ZM197.16 63.87C198.91 67.93 199.55 70.51 199.81 74.57L200.03 78.03L197.43 73L194.83 67.96L194.82 64.35C194.81 62.37 194.71 60.29 194.58 59.74L194.35 58.72L195.12 59.82C195.53 60.42 196.45 62.24 197.16 63.87ZM143.65 63.73C144.99 65.81 149.74 74.08 149.74 74.32C149.74 74.64 143.78 77.15 139.68 78.56C135.36 80.04 134.76 80.06 134.73 78.76C134.72 78.56 133.73 75.7 132.53 72.41C131.33 69.12 130.39 66.38 130.44 66.33C130.49 66.28 132.34 65.59 134.55 64.8C136.76 64.01 139.31 63.02 140.22 62.61C141.13 62.21 141.99 61.86 142.15 61.85C142.3 61.83 142.98 62.68 143.65 63.73ZM45.04 69L47.47 70.78L44.04 76.77C42.16 80.07 40.49 82.97 40.34 83.22C39.98 83.81 36.19 81.01 32.05 77.1L29.07 74.28L31.07 71.42C32.17 69.85 34.13 67.2 35.44 65.54L37.81 62.52L40.22 64.87C41.54 66.16 43.71 68.02 45.04 69ZM11.2 65.92C11.28 68.49 11.96 72.6 12.48 73.59C12.74 74.1 12.45 74.98 11.27 77.24C10.41 78.88 9.18 81.43 8.53 82.92L7.35 85.62L6.91 84.19C6.68 83.41 6.4 80.64 6.29 78.03L6.1 73.29L7.62 70.02C8.98 67.09 10.84 63.64 11.05 63.64C11.1 63.64 11.16 64.67 11.2 65.92ZM25.92 71.82C27.67 74.21 27.74 74.4 27.23 75.18C26.24 76.69 23.52 81.28 22.12 83.83L20.73 86.35L19.7 85.1C18.25 83.33 15.88 79.33 14.83 76.87L13.94 74.76L14.89 73.12C15.65 71.8 18.24 68.01 20.99 64.19C21.24 63.84 21.71 64.48 22.7 66.5C23.45 68.04 24.9 70.43 25.92 71.82ZM72.75 65.25C74.18 65.74 76.81 66.49 78.58 66.91C80.36 67.34 82.01 67.76 82.25 67.84C82.59 67.95 82.57 68.38 82.18 69.73C81.9 70.69 81.09 73.75 80.38 76.53C79.67 79.3 79.01 81.66 78.91 81.77C78.62 82.05 71.34 80.22 67.16 78.82C64.1 77.79 63.51 77.47 63.61 76.9C63.8 75.79 69.46 64.37 69.82 64.37C70 64.37 71.32 64.77 72.75 65.25ZM130.8 71.02C133.8 79.17 134.1 80.05 133.93 80.22C133.37 80.78 120.52 83.31 118.24 83.31C117.32 83.31 117.31 83.25 116.46 77.39C115.99 74.14 115.52 70.97 115.42 70.35L115.24 69.22L119.22 68.61C121.4 68.27 124.34 67.68 125.75 67.31C127.16 66.93 128.51 66.61 128.74 66.59C128.97 66.57 129.9 68.56 130.8 71.02ZM165.78 71.38C170.19 77.96 171.11 79.63 170.62 80.21C170.06 80.89 162.63 85.81 159.9 87.32L157.79 88.49L157.02 86.72C156.59 85.75 155.19 82.76 153.91 80.08C152.63 77.4 151.67 75.08 151.76 74.92C151.86 74.76 153.14 73.98 154.6 73.18C156.06 72.39 158.49 70.82 160 69.71C161.51 68.59 162.86 67.67 163.01 67.66C163.16 67.66 164.4 69.33 165.78 71.38ZM95.67 69.68L98.19 69.9L97.95 74.88C97.83 77.61 97.62 80.82 97.5 82L97.29 84.14L93.33 83.89C89.48 83.65 80.63 82.45 80.3 82.12C80.16 81.97 82.65 71.84 83.47 69.27L83.83 68.16L88.49 68.81C91.06 69.16 94.29 69.55 95.67 69.68ZM114.72 73.39C115.83 80.66 116.17 83.32 115.98 83.5C115.67 83.81 104.63 84.45 101.58 84.33L98.65 84.22L98.71 83.13C98.75 82.53 98.89 79.3 99.03 75.95L99.28 69.85L104.83 69.74C107.88 69.68 111.22 69.6 112.24 69.55L114.12 69.47L114.72 73.39ZM183.42 72.66C186.09 76.72 188.56 81.02 188.56 81.62C188.56 82.46 184.56 87.53 181.64 90.4C180.22 91.79 179.01 92.85 178.94 92.76C178.88 92.67 178.1 91.04 177.22 89.14C176.33 87.24 174.92 84.43 174.07 82.89L172.54 80.11L175.08 77.61C176.48 76.24 178.47 74.01 179.52 72.66C180.56 71.31 181.5 70.2 181.61 70.2C181.71 70.2 182.53 71.31 183.42 72.66ZM197.62 75.93C199.53 79.93 199.63 80.28 199.42 82.22C199.2 84.35 197.46 89.7 196.16 92.23L195.42 93.68L194.44 91.14C193.9 89.74 192.72 87.04 191.81 85.13L190.16 81.67L191.66 78.53C192.49 76.8 193.47 74.21 193.84 72.78C194.65 69.65 194.59 69.59 197.62 75.93ZM52.27 73.63C54.21 74.71 57.08 76.14 58.64 76.8C60.2 77.46 61.48 78.12 61.48 78.26C61.48 78.47 57.17 89.68 56.43 91.38C56.2 91.92 55.73 91.8 52.55 90.4C48.38 88.56 41.34 84.74 41.34 84.31C41.34 83.53 48.09 71.66 48.53 71.66C48.64 71.66 50.33 72.54 52.27 73.63ZM31.88 78.4C33.68 80.1 36.13 82.18 37.33 83.02C38.53 83.86 39.51 84.66 39.51 84.8C39.51 84.93 38.75 86.66 37.82 88.64C36.9 90.62 35.65 93.47 35.04 94.97C34.44 96.47 33.88 97.77 33.8 97.85C33.51 98.15 26.79 92.75 24.16 90.1L21.45 87.37L23.66 83.43C26.44 78.45 28.3 75.32 28.47 75.31C28.55 75.3 30.08 76.69 31.88 78.4ZM202.48 80.25C203.08 82.84 203.56 85.77 203.55 86.77L203.54 88.59L202.63 85.55C202.14 83.87 201.57 82.2 201.37 81.84C201.01 81.17 200.85 75.01 201.2 75.36C201.3 75.46 201.88 77.66 202.48 80.25ZM151.91 78.52C153.35 81.36 156.7 88.65 156.7 88.93C156.7 89.21 148.43 92.54 144.3 93.92C140.13 95.31 139.49 95.38 139.49 94.42C139.49 94.13 138.68 91.24 137.69 87.97C136.7 84.71 135.83 81.84 135.77 81.59C135.69 81.31 137.35 80.56 140.25 79.55C142.79 78.68 145.92 77.46 147.21 76.84C148.5 76.23 149.76 75.71 150.01 75.69C150.26 75.68 151.12 76.95 151.91 78.52ZM15.58 80.95C16.01 81.75 17.2 83.55 18.23 84.94C19.26 86.34 20.1 87.59 20.1 87.72C20.1 87.84 19.58 89.08 18.95 90.46C18.31 91.84 17.19 94.56 16.45 96.5L15.1 100.04L13.77 98.26C11.79 95.63 8.91 90.48 8.41 88.69C7.99 87.23 8.05 86.94 9.22 84.22C9.91 82.62 11.09 80.09 11.85 78.6L13.22 75.88L14.01 77.69C14.45 78.68 15.16 80.14 15.58 80.95ZM6 84.92L6.64 87.44L5.7 90.38C5.18 92 4.44 94.4 4.06 95.7L3.37 98.07L2.95 95.67C2.41 92.66 2.39 86.51 2.92 83.97C3.13 82.91 3.66 80.89 4.09 79.49L4.86 76.94L5.11 79.67C5.25 81.17 5.64 83.54 6 84.92ZM67.6 80.15C69.78 80.84 73.18 81.77 75.16 82.23C78.46 82.99 78.74 83.11 78.55 83.82C78.44 84.24 77.73 87.46 76.98 90.96C76.23 94.47 75.58 97.4 75.52 97.48C75.21 97.91 58.53 93.19 57.71 92.44C57.14 91.91 62.5 78.47 63.18 78.73C63.43 78.82 65.42 79.46 67.6 80.15ZM175.27 87.64C177.37 91.87 177.97 93.38 177.7 93.81C177.17 94.65 171.1 98.89 167.6 100.87C163.6 103.13 163.29 103.24 163.07 102.39C162.97 102.02 161.85 98.97 160.59 95.62L158.29 89.53L162.38 87.13C164.63 85.81 167.6 83.85 169 82.78C171.27 81.04 171.58 80.9 172.01 81.44C172.27 81.76 173.73 84.56 175.27 87.64ZM135 82.86C135.32 84.04 138.08 93.39 138.59 95C138.78 95.61 137.49 96.05 131.7 97.35C128.83 97.99 119.67 99.42 119.5 99.25C119.44 99.19 119.05 96.44 118.63 93.14C118.22 89.84 117.78 86.52 117.66 85.77C117.46 84.45 117.49 84.41 118.53 84.41C119.97 84.41 127.26 83.12 130.7 82.26C134.58 81.29 134.58 81.29 135 82.86ZM193.74 92.49L194.58 94.93L192.83 97.48C190.55 100.79 184.68 106.93 184.24 106.44C184.07 106.24 183.46 104.69 182.89 102.98C182.32 101.28 181.32 98.58 180.67 96.97L179.49 94.06L182.74 90.78C184.52 88.98 186.77 86.45 187.72 85.16L189.46 82.82L191.18 86.44C192.12 88.42 193.27 91.15 193.74 92.49ZM85.83 84.23C87.85 84.53 91.28 84.88 93.46 85.01L97.41 85.25L97.2 90.02C97.08 92.64 96.89 95.98 96.78 97.43L96.58 100.07L95.32 100.07C91.93 100.07 77.41 98.19 76.91 97.68C76.73 97.51 77.77 92.26 79.12 86.47L79.87 83.25L81.02 83.46C81.65 83.58 83.82 83.92 85.83 84.23ZM201.06 84.31C201.28 84.87 201.93 87.16 202.51 89.42C203.55 93.46 203.55 93.58 203.01 96.15C201.85 101.63 198.82 108.44 198.82 105.56C198.82 105.18 198.17 102.63 197.38 99.89L195.94 94.91L197.53 91.65C198.41 89.86 199.42 87.25 199.79 85.86C200.15 84.46 200.49 83.31 200.56 83.31C200.62 83.31 200.84 83.76 201.06 84.31ZM116.42 84.86C116.42 84.91 116.83 88.14 117.34 92.03C118.31 99.52 118.29 99.68 116.6 99.71C116.2 99.71 112.98 99.88 109.46 100.08C105.93 100.28 101.85 100.33 100.39 100.2L97.74 99.97L97.92 97.01C98.02 95.39 98.2 92.13 98.32 89.78L98.54 85.5L102.99 85.46C105.44 85.44 109.01 85.3 110.92 85.15C115.59 84.8 116.42 84.75 116.42 84.86ZM42.06 86.22C43.39 87.16 51.59 91.34 54.05 92.33L55.95 93.09L54.53 97.4C53.74 99.77 52.75 102.9 52.33 104.35C51.91 105.8 51.41 106.99 51.22 106.99C50.15 106.99 37.17 100.44 35.57 99.09L34.78 98.43L36.72 93.88C38.87 88.83 40.51 85.5 40.83 85.5C40.95 85.5 41.5 85.82 42.06 86.22ZM24 91.54C25.58 93.07 28.31 95.39 30.08 96.71C31.84 98.02 33.28 99.17 33.28 99.27C33.28 99.36 32.86 100.6 32.34 102.03C31.82 103.46 30.87 106.37 30.21 108.52L29.03 112.41L25.94 110.13C22.63 107.69 17 102.58 16.41 101.48C16.14 100.98 16.39 99.92 17.39 97.25C18.73 93.69 20.84 88.78 21.03 88.78C21.09 88.78 22.42 90.02 24 91.54ZM7.84 90.33C8.26 91.69 11.65 97.42 13.19 99.36L14.64 101.19L13.09 107.33L11.54 113.47L10.4 111.96C6.85 107.25 4.52 102.43 4.56 99.89C4.59 97.91 6.81 89.5 7.3 89.5C7.46 89.5 7.71 89.87 7.84 90.33ZM158.71 93.79C159.93 96.94 162.19 103.31 162.19 103.59C162.19 104.41 144.27 111.14 143.67 110.55C143.42 110.29 140.59 98.53 140.48 97.24C140.41 96.5 140.86 96.27 145.16 94.82C147.78 93.94 151.41 92.56 153.22 91.75C155.03 90.94 156.7 90.27 156.93 90.26C157.15 90.24 157.96 91.83 158.71 93.79ZM71.08 97.72C74.99 98.66 75.36 98.82 75.2 99.5C75.1 99.91 74.54 103.1 73.94 106.59C73.34 110.07 72.77 113.01 72.67 113.11C72.15 113.62 52.69 108.12 52.69 107.47C52.69 106.94 55.84 96.72 56.69 94.5L57.04 93.58L61.92 95.14C64.6 95.99 68.72 97.16 71.08 97.72ZM2.38 98.36C2.84 100.16 2.85 101.12 2.46 104.83C1.87 110.33 1.36 109.75 1.13 103.31C0.97 98.98 1.38 93.26 1.7 95.33C1.77 95.83 2.08 97.2 2.38 98.36ZM180.74 100.28C181.79 103.07 182.75 105.93 182.88 106.64C183.12 107.91 183.09 107.95 179.89 110.31C176.71 112.67 169.77 116.98 168.19 117.57C167.44 117.85 167.35 117.71 166.75 115.26C166.4 113.81 165.57 110.76 164.91 108.46C164.24 106.16 163.73 104.26 163.77 104.24C166.82 102.85 177.21 96.22 177.77 95.31C178.31 94.44 178.93 95.47 180.74 100.28ZM196.39 100.41C196.92 102.3 197.55 104.86 197.78 106.1L198.19 108.35L196.26 111.14C193.95 114.46 188.09 120.67 187.56 120.35C187.36 120.22 187.09 119.34 186.96 118.38C186.83 117.43 186.25 114.76 185.67 112.46L184.6 108.28L188.41 104.36C190.5 102.21 192.81 99.54 193.56 98.43C194.3 97.31 195.02 96.53 195.16 96.69C195.3 96.84 195.85 98.52 196.39 100.41ZM140.52 102.89C141.33 106.25 142.09 109.5 142.22 110.11L142.45 111.22L138.31 112.19C134.16 113.16 124.67 114.87 122.28 115.08L121 115.19L120.27 107.86L119.53 100.54L125.39 99.58C128.61 99.05 132.81 98.22 134.73 97.74C136.64 97.26 138.4 96.85 138.63 96.83C138.89 96.81 139.64 99.21 140.52 102.89ZM204.55 106.08C204.42 108.81 204.1 110.56 203.26 113.07C202.31 115.94 200.83 119.38 200.55 119.38C200.5 119.38 200.42 118.43 200.37 117.28C200.31 116.13 200.09 113.7 199.87 111.87L199.47 108.56L200.93 105.5C201.73 103.81 202.67 101.54 203.01 100.43C203.35 99.33 203.73 98.18 203.85 97.88C204.25 96.86 204.73 102.43 204.55 106.08ZM81.38 99.7C83.76 100.09 88.19 100.62 91.22 100.86L96.74 101.32L96.51 105.12C96.38 107.21 96.27 110.56 96.27 112.55L96.27 116.18L92.7 115.94C86.68 115.53 74.53 113.9 74.07 113.44C73.92 113.3 75.98 100.85 76.35 99.61C76.58 98.85 76.11 98.84 81.38 99.7ZM42.25 104.17C44.47 105.27 47.35 106.62 48.66 107.17C49.97 107.71 51.08 108.2 51.14 108.24C51.19 108.29 50.75 110.28 50.15 112.67C49.56 115.06 48.87 118.11 48.62 119.47C48.37 120.86 47.98 121.93 47.74 121.93C46.45 121.93 37.72 117.69 32.5 114.53L30.06 113.06L30.59 111.21C31.18 109.15 33.56 101.8 34.05 100.52L34.36 99.7L36.29 100.93C37.36 101.61 40.04 103.06 42.25 104.17ZM119.18 108.17C119.54 111.93 119.74 115.1 119.62 115.22C119.18 115.65 112.01 116.07 104.79 116.08L97.37 116.1L97.41 112C97.43 109.75 97.55 106.46 97.68 104.69L97.92 101.48L105.61 101.3C109.84 101.2 114.37 101 115.68 100.86C117.18 100.7 118.15 100.74 118.3 100.97C118.42 101.18 118.82 104.42 119.18 108.17ZM19.2 105.86C21.07 107.64 23.99 110.12 25.69 111.36L28.76 113.62L27.96 117.04C27.51 118.92 26.93 121.77 26.67 123.38C26.41 124.98 26.07 126.3 25.93 126.3C25.42 126.3 19.15 121.29 16.16 118.48C14.49 116.93 13.04 115.27 12.92 114.81C12.8 114.35 12.9 113.02 13.14 111.85C13.75 108.84 15.42 102.62 15.62 102.62C15.72 102.62 17.33 104.08 19.2 105.86ZM5.42 106.09C6.24 107.69 7.91 110.38 9.15 112.08L11.4 115.17L10.99 118.09C10.76 119.7 10.56 121.83 10.54 122.84C10.52 123.84 10.39 125.07 10.25 125.57C10.01 126.41 9.85 126.27 8.03 123.6C6.96 122.01 5.4 119.3 4.57 117.58C3.24 114.82 3.07 114.16 3.09 111.91C3.11 109.05 3.62 102.86 3.82 103.06C3.89 103.13 4.61 104.5 5.42 106.09ZM163.95 109.18C165.73 115.45 166.35 118.3 166 118.61C164.81 119.66 148.24 125.93 146.66 125.93C146.33 125.93 145.25 120.63 143.99 112.82C143.85 111.94 144.06 111.84 149.27 110.15C152.25 109.18 156.42 107.61 158.53 106.66C160.65 105.71 162.48 105.02 162.62 105.14C162.75 105.26 163.35 107.07 163.95 109.18ZM57.38 110.4C60 111.27 64.47 112.54 67.31 113.21C71.86 114.3 72.47 114.53 72.45 115.18C72.44 115.58 72.05 118.78 71.59 122.29C70.83 128.13 70.7 128.66 70.06 128.55C68.44 128.3 60.02 126.22 57.82 125.54C51.21 123.47 49.11 122.6 49.25 121.99C49.32 121.65 49.88 119.08 50.5 116.28C51.57 111.37 52.26 108.81 52.5 108.81C52.56 108.81 54.76 109.53 57.38 110.4ZM184.67 113.09C185.18 115.25 185.78 118.06 186.01 119.34C186.42 121.67 186.41 121.68 185.38 122.53C182.09 125.25 170.47 132.5 170.1 132.08C170.03 132 169.54 129.4 169.01 126.3C168.47 123.19 167.94 120.31 167.83 119.89C167.66 119.25 168.04 118.92 170.22 117.78C172.72 116.47 180.47 111.46 182.34 109.94C182.84 109.53 183.36 109.19 183.49 109.18C183.63 109.18 184.15 110.94 184.67 113.09ZM199.18 116.3L199.57 121.33L197.95 123.72C196.01 126.61 191.59 131.69 189.92 132.95L188.71 133.87L188.25 128.06L187.79 122.24L191.44 118.47C193.44 116.4 195.8 113.7 196.66 112.48C197.8 110.88 198.31 110.4 198.52 110.77C198.67 111.04 198.97 113.53 199.18 116.3ZM142.78 112.58C142.78 112.65 143.19 114.9 143.69 117.58C144.19 120.26 144.7 123.36 144.83 124.48L145.06 126.51L140.9 127.48C135.97 128.63 127.77 130.15 124.59 130.5L122.32 130.76L122.13 129.53C121.68 126.64 121.14 116.72 121.42 116.48C121.59 116.35 123.82 115.94 126.37 115.59C128.93 115.24 133.38 114.41 136.26 113.75C141.38 112.58 142.78 112.32 142.78 112.58ZM32 115.56C34.37 117.07 43.31 121.54 45.84 122.48C46.8 122.83 47.64 123.22 47.7 123.35C47.76 123.47 47.52 125.29 47.16 127.39C46.81 129.49 46.4 132.41 46.25 133.88C46 136.52 45.99 136.55 45.04 136.32C43.68 136 32.04 130.26 29.53 128.67C26.97 127.05 26.98 127.15 28.52 119.74C29.12 116.83 29.62 114.42 29.62 114.37C29.62 114.12 30.13 114.38 32 115.56ZM204.12 116.01C203.3 121.99 202.23 126.2 200.66 129.6L199.92 131.21L200.09 129.76C200.18 128.96 200.36 126.82 200.48 125.02C200.67 122.3 200.91 121.34 201.92 119.38C202.58 118.07 203.32 116.39 203.56 115.64C204.16 113.77 204.4 113.93 204.12 116.01ZM80.34 115.72C82.96 116.11 87.55 116.63 90.54 116.88L95.98 117.33L95.85 124.33C95.78 128.18 95.62 131.44 95.5 131.56C94.96 132.1 73.62 129.74 72.44 129.01C71.95 128.71 72 127.92 72.9 120.91L73.71 114.61L74.64 114.81C75.16 114.92 77.72 115.33 80.34 115.72ZM22.42 125.21C26 127.88 26.03 127.91 25.81 129.19C25.68 129.9 25.48 132.58 25.35 135.13C25.22 137.68 25.01 139.77 24.89 139.77C23.98 139.77 14.97 132.18 12.76 129.56L11.26 127.78L11.66 122.76C11.88 120 12.15 117.43 12.27 117.07C12.44 116.52 13.03 116.94 15.65 119.47C17.39 121.15 20.44 123.74 22.42 125.21ZM120.4 122.2C120.64 125.35 120.87 128.59 120.91 129.39L120.99 130.85L119.35 131.12C118.44 131.27 113 131.5 107.26 131.63L96.82 131.86L96.92 126.44C96.97 123.46 97.06 120.2 97.1 119.21L97.19 117.4L105.06 117.28C109.39 117.22 114.17 117.03 115.68 116.86C117.19 116.7 118.78 116.54 119.2 116.51C119.94 116.46 119.99 116.71 120.4 122.2ZM4.21 119.47C5.21 121.43 7.37 124.75 9.13 127.02C10.03 128.19 10.15 128.75 10.53 133.37C10.75 136.16 10.87 138.5 10.8 138.58C10.55 138.82 6.83 132.77 5.61 130.15C4.96 128.73 4.23 126.59 4.01 125.39C3.57 123.05 2.95 117.55 3.13 117.55C3.19 117.55 3.68 118.42 4.21 119.47ZM167.2 122.31C167.46 123.6 167.95 126.44 168.29 128.63C168.87 132.4 168.87 132.62 168.26 133.07C166.91 134.05 159.6 137.02 153.95 138.89L148.09 140.82L147.85 138.93C147.13 133.48 146.43 127.29 146.52 127.23C146.58 127.2 149.27 126.31 152.49 125.26C155.71 124.2 160.08 122.55 162.19 121.58C164.31 120.61 166.19 119.85 166.38 119.89C166.56 119.93 166.93 121.02 167.2 122.31ZM187.29 130.49L187.54 135.22L185.03 137.09C180.15 140.73 171.56 145.93 171.13 145.5C170.76 145.13 170.19 133.42 170.54 133.3C172.31 132.72 180.72 127.45 184.72 124.43L186.55 123.04L186.79 124.4C186.93 125.14 187.15 127.88 187.29 130.49ZM65.33 128.66C67.74 129.2 69.95 129.72 70.23 129.8C70.6 129.91 70.67 130.38 70.51 131.68C70.39 132.62 70.11 135.61 69.9 138.3C69.68 141 69.43 143.28 69.34 143.37C69.05 143.66 57.1 140.57 52.13 138.92C47.43 137.36 47.38 137.34 47.26 136.17C47.16 135.14 48.45 125.36 48.83 124.24C48.93 123.95 50.95 124.45 54.96 125.74C58.24 126.8 62.91 128.11 65.33 128.66ZM199.31 125.84C199.23 126.79 198.99 129.1 198.76 130.97C198.36 134.27 198.29 134.44 196.2 137.36C194.2 140.16 188.32 146.58 188.03 146.28C187.96 146.21 188.04 144.84 188.21 143.23C188.38 141.63 188.53 139.33 188.54 138.12L188.56 135.91L192.32 132.09C194.38 129.99 196.73 127.34 197.53 126.21C198.34 125.07 199.1 124.14 199.22 124.13C199.34 124.12 199.38 124.89 199.31 125.84ZM145.47 128.83C145.85 130.72 146.89 140.91 146.72 141.08C146.14 141.65 130.93 144.71 124.96 145.45L123.07 145.69L122.87 143.73C122.76 142.66 122.57 139.56 122.46 136.84L122.24 131.91L125.85 131.46C129.43 131.02 140.85 128.81 142.97 128.16C144.85 127.57 145.24 127.68 145.47 128.83ZM29.88 130.19C31.93 131.49 39.7 135.35 43.46 136.94L45.77 137.92L45.56 141.12C45.44 142.89 45.25 145.66 45.14 147.3L44.94 150.26L42.68 149.35C39.29 147.99 31.99 144.3 28.92 142.4L26.21 140.72L26.45 135.42C26.72 129.61 26.92 128.36 27.56 128.74C27.78 128.88 28.83 129.53 29.88 130.19ZM21.86 139.05L25.2 141.41L25.24 144.87C25.26 146.78 25.4 149.2 25.55 150.25C25.7 151.3 25.7 152.16 25.55 152.16C24.64 152.16 15.83 144.72 13.74 142.18C12.39 140.54 12.14 139.44 11.51 132.18L11.31 129.87L14.92 133.27C16.9 135.14 20.03 137.74 21.86 139.05ZM76.13 130.84C80.1 131.52 87.38 132.37 91.97 132.68L95.54 132.92L95.54 139.83L95.54 146.75L92.52 146.52C84.02 145.87 71.3 144.2 70.76 143.66C70.6 143.51 71.22 135.06 71.61 132.03C71.86 130.03 71.7 130.08 76.13 130.84ZM121.33 136.41C121.46 138.76 121.6 141.83 121.64 143.23L121.73 145.78L119.71 146.05C118.6 146.19 112.96 146.42 107.17 146.55L96.64 146.8L96.64 139.9L96.64 132.99L104.42 132.91C108.7 132.87 113.69 132.7 115.5 132.53C117.31 132.37 119.31 132.21 119.95 132.18L121.1 132.13L121.33 136.41ZM6.68 134.58C6.97 135.14 8.15 136.9 9.3 138.5C11.15 141.06 11.52 141.88 12.39 145.31C12.94 147.46 13.27 149.14 13.12 149.05C12.58 148.72 9.82 143.84 8.89 141.59C6.42 135.54 5.24 131.82 6.68 134.58ZM199.55 135.59C198.98 137.31 198.72 137.05 199.22 135.26C199.43 134.5 199.69 133.96 199.8 134.07C199.9 134.17 199.79 134.86 199.55 135.59ZM169.31 137.5C169.43 139.25 169.62 141.95 169.73 143.49L169.93 146.3L167.64 147.45C163.22 149.67 149.27 154.73 148.82 154.27C148.74 154.2 148.58 151.77 148.46 148.87C148.33 145.97 148.16 143.24 148.07 142.81C147.93 142.09 148.26 141.91 151.66 140.86C155.92 139.55 164.69 136.2 166.82 135.09C167.6 134.68 168.43 134.34 168.66 134.33C168.94 134.32 169.16 135.43 169.31 137.5ZM187.46 138.1C187.46 139.64 186.76 146.68 186.53 147.44C186.22 148.46 178.24 154.01 172.67 157.08L170.15 158.47L170.38 156.13C170.5 154.85 170.71 152.27 170.84 150.41L171.08 147.03L172.59 146.27C175.63 144.75 181.85 140.85 184.35 138.91C185.76 137.81 187.04 136.9 187.19 136.88C187.34 136.87 187.46 137.42 187.46 138.1ZM196.09 142.52C195.18 145.23 194.22 147.21 192.92 149.09C191.03 151.81 185.08 158.27 185.4 157.26C185.49 156.96 186.02 154.84 186.58 152.56L187.59 148.4L190.37 145.75C191.89 144.29 194.05 141.96 195.15 140.58C196.26 139.19 197.22 138.19 197.28 138.35C197.35 138.51 196.81 140.38 196.09 142.52ZM52.33 140.15C54.84 140.99 59.71 142.37 63.13 143.22C69.25 144.74 69.35 144.78 69.33 145.73C69.32 146.26 69.28 149.08 69.24 151.99L69.17 157.29L67.8 157.04C64.64 156.47 56.19 154.18 51.41 152.59L46.28 150.89L46.38 147.24C46.55 141.11 46.85 138.26 47.32 138.46C47.56 138.55 49.81 139.32 52.33 140.15ZM29.16 143.83C31.99 145.56 38.89 149 42.53 150.52C44.67 151.4 45 151.67 45.01 152.49C45.02 153.01 45.17 155.48 45.36 157.98C45.54 160.48 45.64 162.57 45.58 162.63C45.39 162.82 39.6 160.25 35.56 158.18C29.47 155.07 27.2 153.51 26.93 152.29C26.59 150.69 26.18 142.32 26.44 142.32C26.57 142.32 27.79 143 29.16 143.83ZM146.95 143.33C147.05 143.88 147.19 146.69 147.25 149.58L147.36 154.84L144.8 155.5C139.39 156.91 125.56 159.44 123.31 159.44C123.14 159.44 123.01 156.6 123.01 153.12L123.01 146.79L126.58 146.34C130.56 145.83 139.31 144.16 143.52 143.1C145.03 142.72 146.37 142.39 146.51 142.36C146.64 142.34 146.84 142.78 146.95 143.33ZM22.83 151.71L26.1 154.16L26.54 156.53C26.78 157.83 27.26 159.85 27.6 161.02C27.94 162.19 28.15 163.21 28.07 163.29C27.78 163.58 20.27 157.35 18.01 154.95C15.98 152.8 15.63 152.18 14.66 149.16C12.62 142.75 12.57 142.84 16.3 146.27C18.09 147.91 21.02 150.35 22.83 151.71ZM75.58 145.76C79.13 146.35 87.16 147.25 92.32 147.62L95.5 147.85L95.29 154.1C95.17 157.54 95.05 160.38 95.03 160.41C94.77 160.78 78.93 159.09 73.47 158.11L70.27 157.53L70.27 153.12C70.28 150.69 70.38 147.83 70.51 146.76C70.72 145.02 70.82 144.84 71.52 145.02C71.94 145.12 73.77 145.46 75.58 145.76ZM121.91 153.39L121.91 159.71L119.25 159.95C117.79 160.08 112.13 160.28 106.67 160.41C99.08 160.59 96.68 160.54 96.47 160.2C96.32 159.96 96.32 157.06 96.46 153.77L96.73 147.79L104.65 147.75C109.01 147.73 113.97 147.59 115.68 147.44C117.39 147.3 119.5 147.15 120.35 147.12L121.91 147.06L121.91 153.39ZM169.76 150.06C169.64 151.32 169.43 153.78 169.3 155.55C169.1 158.27 168.94 158.84 168.28 159.27C166.08 160.7 150.22 166.73 148.66 166.73C148.24 166.73 148.21 162.43 148.6 158.22L148.83 155.71L154.5 153.81C159.97 151.98 166.05 149.59 168.27 148.39C168.86 148.08 169.48 147.81 169.65 147.8C169.83 147.8 169.87 148.81 169.76 150.06ZM185.45 152.58C183.9 158.7 183.6 159.25 180.75 161.39C177.35 163.93 172.42 167.11 169.97 168.34L168.03 169.3L168.24 168.47C168.35 168.02 168.81 165.88 169.26 163.73L170.08 159.82L174.1 157.54C178.31 155.15 185.04 150.64 185.5 149.89C186.05 149 186.03 150.3 185.45 152.58ZM51.85 153.94C54.83 154.92 59.93 156.35 63.18 157.12L69.1 158.52L69.25 163.99C69.33 167 69.36 169.52 69.3 169.6C69.08 169.9 57.7 166.93 52.45 165.2L46.89 163.37L46.67 160.22C46.16 152.96 46.12 152.16 46.27 152.16C46.35 152.16 48.87 152.96 51.85 153.94ZM189.28 156.77C187.33 159.86 182.5 166 181.58 166.56C181.41 166.67 181.95 165.31 182.77 163.55C184.02 160.89 184.85 159.75 187.79 156.7C189.72 154.68 191.36 153.07 191.43 153.11C191.49 153.15 190.53 154.8 189.28 156.77ZM31.74 157.39C35.63 159.61 44.55 163.82 45.35 163.82C45.55 163.82 45.79 164.18 45.88 164.64C46.7 168.74 47.51 173.46 47.42 173.56C47.04 173.93 35.06 167.94 30.82 165.26C29.81 164.62 29.49 163.84 28.34 159.31C27.44 155.79 27.31 155.07 27.53 155.07C27.59 155.07 29.49 156.12 31.74 157.39ZM25.59 162.98C28.37 165.02 29.17 165.82 29.57 166.95C29.85 167.73 30.56 169.34 31.14 170.52C31.72 171.7 32.15 172.71 32.09 172.77C31.86 173 24.61 166.8 22.95 164.95C21.41 163.25 17.53 157.08 17.53 156.34C17.53 156.18 18.56 157.03 19.82 158.23C21.08 159.43 23.68 161.57 25.59 162.98ZM147.37 160.27C147.25 162.52 147.07 165.04 146.97 165.86L146.78 167.35L142.86 168.3C136.8 169.76 125.55 171.81 123.47 171.83C123.12 171.83 123.01 170.49 123.01 166.35C123.01 162.3 123.13 160.84 123.47 160.72C123.72 160.63 126.64 160.14 129.97 159.63C133.29 159.12 138.32 158.16 141.14 157.48C143.96 156.81 146.56 156.23 146.92 156.21C147.53 156.17 147.57 156.47 147.37 160.27ZM73.43 159.24C77.66 160 84.42 160.83 90.02 161.25C92.72 161.46 94.96 161.67 95.01 161.72C95.05 161.77 95.15 164.27 95.22 167.28L95.36 172.74L92.79 172.64C86.56 172.39 71.35 170.48 70.74 169.87C70.47 169.6 70.1 158.72 70.36 158.72C70.47 158.72 71.85 158.95 73.43 159.24ZM168.56 161.72C167.88 165.49 166.82 169.36 166.28 169.96C165.45 170.89 158.34 173.93 152.18 175.97C149.4 176.9 146.98 177.66 146.82 177.66C146.65 177.66 146.59 177.37 146.68 177.02C146.77 176.67 147.13 174.52 147.47 172.23L148.09 168.08L149.92 167.56C153.37 166.58 160.18 164.09 164.21 162.34C166.42 161.38 168.36 160.58 168.5 160.57C168.65 160.55 168.67 161.07 168.56 161.72ZM121.83 166.46L121.73 172.01L119.53 172.27C118.32 172.41 112.68 172.64 106.98 172.78L96.64 173.03L96.57 170.34C96.54 168.85 96.5 166.33 96.48 164.73L96.46 161.81L107.38 161.58C113.38 161.44 118.4 161.24 118.52 161.12C118.64 161 119.45 160.9 120.33 160.9L121.93 160.9L121.83 166.46ZM180.48 165.62C179.11 168.23 178.09 169.67 176.97 170.58C173.79 173.17 165.51 178.39 164.58 178.39C164.46 178.39 164.65 177.85 165 177.2C165.34 176.55 166.05 174.87 166.58 173.47L167.53 170.92L170.76 169.18C174.05 167.41 181.42 162.58 181.82 161.93C181.94 161.74 182.13 161.66 182.23 161.76C182.33 161.86 181.54 163.6 180.48 165.62ZM57.09 167.81C59.81 168.59 63.7 169.59 65.74 170.04L69.46 170.87L69.89 174.9C70.12 177.12 70.4 179.22 70.5 179.57C70.76 180.47 69.91 180.4 64.66 179.1C60.1 177.97 50.33 174.96 49.44 174.41C48.91 174.08 47.77 169.76 47.36 166.52L47.11 164.52L49.63 165.46C51.01 165.98 54.37 167.04 57.09 167.81ZM34.77 168.83C36.87 169.99 40.32 171.71 42.44 172.67C44.55 173.62 46.68 174.6 47.17 174.85C47.82 175.18 48.31 176.06 49.04 178.23C49.59 179.85 50.23 181.53 50.46 181.97C50.7 182.4 50.8 182.76 50.69 182.76C49.62 182.76 37.56 176.63 35.28 174.92C34.07 174.02 30.12 166.73 30.84 166.73C30.9 166.73 32.67 167.68 34.77 168.83ZM146.6 170.46C146.21 173.63 145.37 177.78 145.08 178.05C144.35 178.71 130.14 181.61 124.56 182.23L122.28 182.49L122.47 179.62C122.58 178.04 122.76 175.91 122.86 174.88L123.05 173.02L126.42 172.58C130.19 172.09 141.26 169.93 144.07 169.14C146.92 168.33 146.87 168.3 146.6 170.46ZM35.02 177.32L36.35 179.3L34.54 177.78C33.55 176.94 31.5 175 29.99 173.46L27.24 170.66L30.46 173C32.6 174.56 34.13 176.01 35.02 177.32ZM75.81 171.99C78.86 172.51 86.76 173.38 92.7 173.85L95.54 174.08L95.54 178.82L95.54 183.56L92.52 183.32C84.19 182.67 72.59 181.12 72 180.59C71.78 180.39 70.64 172.68 70.64 171.36C70.64 171.19 71.09 171.14 71.64 171.25C72.2 171.36 74.08 171.7 75.81 171.99ZM165.67 172.65C165.54 173.1 164.79 174.83 164 176.5L162.57 179.52L158.75 181.32C155.07 183.05 144.78 186.68 144.46 186.37C144.38 186.28 144.76 184.61 145.31 182.65L146.31 179.08L152.15 177.14C155.36 176.07 159.63 174.45 161.64 173.55C163.66 172.64 165.44 171.89 165.61 171.87C165.77 171.85 165.8 172.2 165.67 172.65ZM175.06 173.95C173.8 175.71 169.32 179.71 166.52 181.58C163.27 183.75 160.36 185.45 160.36 185.18C160.36 185.07 161.11 183.91 162.03 182.61C163.45 180.59 164.11 180.02 166.58 178.71C168.17 177.87 170.84 176.24 172.52 175.08C174.19 173.93 175.61 172.97 175.68 172.95C175.74 172.94 175.46 173.39 175.06 173.95ZM121.69 174.84C121.62 175.69 121.46 177.8 121.34 179.54L121.12 182.69L119.41 182.89C118.47 183.01 112.96 183.21 107.17 183.34L96.64 183.59L96.64 178.8L96.64 174.02L104.42 173.98C108.7 173.96 113.6 173.82 115.32 173.67C117.03 173.52 119.19 173.37 120.12 173.34L121.82 173.29L121.69 174.84ZM63.97 180.03C66.93 180.75 69.73 181.42 70.18 181.51C70.74 181.62 71 181.94 71.01 182.49C71.01 182.94 71.32 184.62 71.71 186.22C72.09 187.82 72.38 189.15 72.35 189.18C72.18 189.33 63 186.94 59.32 185.8C51.98 183.52 52.3 183.75 50.74 179.66C50 177.71 49.4 176 49.4 175.86C49.4 175.72 51.46 176.31 53.99 177.17C56.51 178.03 61 179.32 63.97 180.03ZM43.35 180.66C45.57 181.75 48.34 183.04 49.52 183.51C51.29 184.23 51.79 184.64 52.41 185.85C52.82 186.65 53.48 187.77 53.88 188.33C54.28 188.9 54.54 189.41 54.47 189.49C54.23 189.72 46.9 186.13 43.81 184.27C40.77 182.43 39.06 180.89 37.09 178.22L36.03 176.77L37.68 177.72C38.58 178.25 41.14 179.57 43.35 180.66ZM144.85 180.12C144.75 180.47 144.24 182.17 143.72 183.91L142.78 187.06L138.11 188.18C133.73 189.23 127.56 190.37 123.05 190.96C121.11 191.21 121.08 191.2 121.28 190.36C121.4 189.88 121.59 188.51 121.72 187.31C122.13 183.37 121.82 183.69 125.86 183.19C129.43 182.74 140.85 180.54 142.97 179.88C144.65 179.36 145.05 179.41 144.85 180.12ZM160.9 182.3C158.5 186.04 157.33 187.06 153.48 188.76C149.81 190.37 141.32 193.44 141.1 193.23C141.04 193.17 141.57 191.98 142.27 190.59L143.55 188.06L149.12 186.21C152.18 185.19 156.17 183.68 157.98 182.86C159.8 182.04 161.34 181.36 161.41 181.34C161.49 181.32 161.26 181.75 160.9 182.3ZM79.79 183.1C82.51 183.5 87.13 184.01 90.05 184.24C93.17 184.49 95.47 184.83 95.63 185.08C95.77 185.3 95.9 186.97 95.9 188.77L95.91 192.06L91.97 191.81C87.79 191.54 80.07 190.62 76.13 189.92L73.76 189.49L73.15 187.25C72.82 186.02 72.43 184.32 72.28 183.47L72.02 181.92L73.43 182.16C74.21 182.29 77.07 182.71 79.79 183.1ZM120.57 187.38C120.3 189.33 119.96 191.03 119.81 191.18C119.35 191.61 107.08 192.29 101.95 192.16L97.19 192.05L97 188.31L96.82 184.58L105.06 184.53C109.59 184.51 114.54 184.37 116.05 184.23C117.56 184.09 119.31 183.94 119.93 183.91L121.06 183.85L120.57 187.38ZM66.92 189.07L72.91 190.59L73.8 192.93C74.28 194.22 74.64 195.39 74.58 195.53C74.35 196.12 59.07 191.74 57.15 190.53C56.4 190.05 53.42 185.91 53.42 185.33C53.42 185.2 55.11 185.65 57.18 186.32C59.24 186.99 63.63 188.23 66.92 189.07ZM57.27 192.66L58.37 193.75L55.62 192.4C52.87 191.05 47.93 188.24 47.93 188.03C47.93 187.59 56.4 191.79 57.27 192.66ZM140.66 191.23L139.2 193.87L135.22 194.85C133.04 195.39 129.19 196.18 126.67 196.59C124.15 197 121.53 197.43 120.85 197.54C119.84 197.71 119.65 197.64 119.83 197.19C119.95 196.88 120.24 195.67 120.48 194.5L120.93 192.37L125.54 191.72C129.94 191.09 137.21 189.68 139.63 188.98C142.18 188.24 142.24 188.37 140.66 191.23ZM153.22 190.62C150.98 192.49 137.66 198.27 137.66 197.37C137.66 197.22 138.19 196.6 138.85 195.97C139.72 195.13 141.24 194.44 144.61 193.34C147.13 192.52 150.26 191.38 151.57 190.8C154.52 189.5 154.57 189.5 153.22 190.62ZM78.88 191.48C82.54 192.08 87.44 192.63 91.78 192.92C94.05 193.07 95.96 193.26 96.04 193.35C96.11 193.43 96.27 194.63 96.4 196.01L96.62 198.52L93.06 198.27C89.03 197.98 82.23 197.15 78.73 196.52L76.38 196.09L75.34 193.8C74.01 190.89 74.02 190.69 75.49 190.93C76.14 191.04 77.67 191.29 78.88 191.48ZM64.23 194.22C66.44 194.88 69.91 195.81 71.94 196.28C75.38 197.07 75.68 197.21 76.6 198.5C77.24 199.39 77.42 199.88 77.1 199.88C76.32 199.88 67.73 197.45 65.04 196.47C63.67 195.97 61.73 194.94 60.73 194.18C58.81 192.73 58.51 192.36 59.56 192.76C59.91 192.9 62.01 193.55 64.23 194.22ZM119.53 193.78C118.93 196.66 118.5 197.64 117.73 197.83C116.17 198.22 102.25 198.81 100.07 198.58C97.82 198.35 97.82 198.34 97.6 197.02C97.48 196.29 97.38 195.16 97.37 194.51L97.37 193.32L103.87 193.29C107.45 193.27 111.77 193.13 113.49 192.98C115.2 192.83 117.31 192.68 118.18 192.65L119.77 192.59L119.53 193.78ZM136.36 196.96C135.1 198.22 134.43 198.54 131.43 199.3C127.63 200.26 118.64 201.84 118.39 201.6C118.31 201.52 118.48 200.87 118.77 200.17L119.31 198.9L124.57 198.08C127.47 197.63 131.39 196.89 133.29 196.43C137.97 195.29 138.04 195.3 136.36 196.96ZM82.4 198.25C84.69 198.59 88.87 199.05 91.69 199.28L96.82 199.7L96.94 201.12L97.06 202.54L93.64 202.29C91.77 202.15 87.92 201.71 85.1 201.3C80.57 200.65 79.86 200.45 78.94 199.59C77.6 198.32 76.91 197.13 77.69 197.43C77.99 197.54 80.11 197.91 82.4 198.25ZM117.25 200.7C116.61 201.8 116.38 201.9 114.02 202.15C109.87 202.58 98.92 202.65 98.53 202.25C98.33 202.05 98.11 201.43 98.04 200.89L97.92 199.89L105.61 199.68C109.84 199.57 114.29 199.36 115.5 199.22C116.71 199.08 117.75 199.09 117.82 199.24C117.89 199.39 117.63 200.05 117.25 200.7ZM89.05 203.03C88.8 203.13 88.3 203.14 87.95 203.05C87.59 202.95 87.79 202.87 88.4 202.86C89 202.86 89.29 202.93 89.05 203.03ZM118.34 203.03C118.09 203.14 117.67 203.14 117.42 203.03C117.17 202.93 117.38 202.85 117.88 202.85C118.38 202.85 118.59 202.93 118.34 203.03ZM97.71 203.75C97.97 203.99 93.6 203.82 91.51 203.52C90.14 203.32 90.78 203.29 93.53 203.42C95.74 203.53 97.62 203.68 97.71 203.75ZM113.85 203.55C111.94 204.02 99.35 204.43 99.1 204.02C98.98 203.82 99.89 203.73 101.34 203.8C102.68 203.86 105.92 203.77 108.54 203.59C114.87 203.16 115.45 203.15 113.85 203.55Z" fill="#FFFFFF" fill-opacity="1.000000" fill-rule="evenodd"/>
</svg>
